<svg width="24" height="24" viewBox="0 0 24 24" fill="none" xmlns="http://www.w3.org/2000/svg">
<path d="M18.466 2.31301C17.8799 2.63891 17.4893 3.19758 17.3672 3.77953L8.99175 6.82896C8.96733 6.80568 8.96733 6.78241 8.94292 6.75913C7.89294 5.05982 5.62205 4.50116 3.83953 5.50212C2.05701 6.50308 1.47097 8.66793 2.52095 10.3672C3.57093 12.0665 5.84182 12.6252 7.62434 11.6243C7.86852 11.4846 8.06386 11.3449 8.25921 11.1587L10.8964 12.9744C9.69988 14.6737 9.48011 16.9317 10.5301 18.8637C12.0684 21.7037 15.7311 22.821 18.7102 21.3545C21.6892 19.888 22.8612 16.3963 21.3229 13.5563C20.8345 12.6485 20.1264 11.9269 19.3206 11.4148L20.5171 6.24701C20.6148 6.20045 20.7124 6.1539 20.8101 6.10734C21.9089 5.47883 22.2752 4.1287 21.6403 3.08119C21.0055 2.03367 19.5648 1.6845 18.466 2.31301ZM18.3683 10.9259C16.7567 10.2508 14.8521 10.2509 13.1672 11.0889C12.5568 11.3915 12.0196 11.7639 11.5801 12.2062L8.94292 10.3905C9.43128 9.62234 9.6022 8.66794 9.38244 7.78337L17.4404 4.85032C17.4893 5.01327 17.5625 5.19949 17.6602 5.36244C18.0509 5.99095 18.7102 6.36341 19.4183 6.43324L18.3683 10.9259Z" fill="#F45503"/>
</svg>
