<svg width="14" height="20" viewBox="0 0 14 20" fill="none" xmlns="http://www.w3.org/2000/svg">
<path d="M7 19.0116C10.866 19.0116 14 15.875 14 12.0058C14 8.13662 10.866 5 7 5C3.13401 5 0 8.13662 0 12.0058C0 15.875 3.13401 19.0116 7 19.0116Z" fill="#F45503"/>
<path d="M5.17653 5.26725L7.94557 0.533607C8.13476 0.206555 8.49594 0 8.87432 0H12.2281C13.0537 0 13.5696 0.895093 13.1569 1.61805L10.3706 6.35169C10.1814 6.67875 9.82026 6.8853 9.44188 6.8853H6.10527C5.27972 6.86809 4.76375 5.97299 5.17653 5.26725Z" fill="#F45503"/>
<path d="M8.80569 5.26725L6.03665 0.533607C5.84746 0.206555 5.48628 0 5.1079 0H1.77129C0.945737 0 0.429767 0.895093 0.842543 1.61805L3.61158 6.35169C3.80077 6.67875 4.16195 6.8853 4.54033 6.8853H7.89414C8.71969 6.86809 9.23566 5.97299 8.80569 5.26725Z" fill="#F45503"/>
</svg>
