<svg width="16" height="19" viewBox="0 0 16 19" fill="none" xmlns="http://www.w3.org/2000/svg">
<path d="M15.4315 7.22292C14.8204 6.97106 14.2272 6.68322 13.67 6.34141C13.3284 6.14352 13.1667 5.74775 13.2565 5.35197C13.4183 4.66836 13.634 4.00274 13.9036 3.3551C14.2272 2.61752 13.4722 1.84396 12.7173 2.16778C12.0702 2.45562 11.3871 2.67149 10.7221 2.81541C10.3446 2.90536 9.94914 2.74346 9.75141 2.40165C9.39191 1.82598 9.08634 1.19632 8.81672 0.566679C8.51114 -0.188893 7.45062 -0.188893 7.14504 0.566679C6.89339 1.19632 6.58782 1.80797 6.22832 2.38365C6.0306 2.70746 5.63515 2.88737 5.25767 2.79742C4.61058 2.6535 3.98145 2.43762 3.3703 2.18576C2.61536 1.86195 1.86041 2.61752 2.18396 3.37309C2.45358 4.00273 2.65131 4.63239 2.81308 5.28003C2.90295 5.65781 2.74118 6.03558 2.41763 6.25146C1.82446 6.62925 1.21331 6.93508 0.566211 7.20493C-0.188737 7.51076 -0.188737 8.57216 0.566211 8.89598C1.21331 9.16583 1.84243 9.47164 2.41763 9.84943C2.74118 10.0653 2.90295 10.4611 2.81308 10.8389C2.65131 11.4865 2.43561 12.1341 2.18396 12.7638C1.86041 13.5194 2.61536 14.2749 3.3703 13.9511C3.8736 13.7352 4.3769 13.5553 4.89818 13.4114V18.4306C4.89818 18.5565 4.93412 18.6644 4.98805 18.7364C5.05995 18.8264 5.1678 18.8983 5.27565 18.8983C5.3835 18.8983 5.50932 18.8443 5.61717 18.7544L7.75619 16.9374C7.82809 16.8835 7.91797 16.8475 8.00784 16.8475C8.09772 16.8475 8.20557 16.8835 8.25949 16.9374L10.3985 18.7544C10.5064 18.8443 10.6142 18.8983 10.7221 18.8983C10.9018 18.8983 11.0995 18.7544 11.0995 18.4306V13.3754C11.6388 13.5194 12.178 13.6993 12.7173 13.9331C13.4543 14.2569 14.2092 13.4834 13.9036 12.7458C13.634 12.0982 13.4183 11.4505 13.2565 10.7849C13.1667 10.4071 13.3284 10.0113 13.67 9.81345C14.2272 9.47165 14.8204 9.16582 15.4495 8.91396C16.1864 8.59015 16.1864 7.52874 15.4315 7.22292ZM7.98987 12.5479C5.50932 12.5479 3.49613 10.533 3.49613 8.05044C3.49613 5.56785 5.50932 3.55299 7.98987 3.55299C10.4704 3.55299 12.4836 5.56785 12.4836 8.05044C12.4656 10.533 10.4704 12.5479 7.98987 12.5479Z" fill="#F45503"/>
<path d="M7.99002 13.0875C10.7697 13.0875 13.023 10.8323 13.023 8.05034C13.023 5.26839 10.7697 3.01318 7.99002 3.01318C5.21038 3.01318 2.95703 5.26839 2.95703 8.05034C2.95703 10.8323 5.21038 13.0875 7.99002 13.0875Z" fill="#F45503"/>
</svg>
