<svg width="20" height="10" viewBox="0 0 20 10" fill="none" xmlns="http://www.w3.org/2000/svg">
<path d="M7.96064 9.44398C7.76163 9.44398 7.56263 9.40131 7.39205 9.2875C6.82346 8.97451 6.61024 8.24896 6.93718 7.6799L10.8747 0.609361C11.1874 0.0403027 11.9123 -0.173104 12.4809 0.154104C13.0495 0.467086 13.2627 1.19264 12.9358 1.7617L8.99831 8.83224C8.78509 9.21635 8.38708 9.44398 7.96064 9.44398Z" fill="#F45503"/>
<path d="M4.71873 9.44394C4.42022 9.44394 4.1075 9.33012 3.88006 9.1025L0.354824 5.57434C-0.100046 5.11909 -0.100046 4.36511 0.354824 3.89563C0.809694 3.44039 1.56307 3.44039 2.03216 3.89563L5.5574 7.42377C6.01227 7.87902 6.01227 8.63303 5.5574 9.1025C5.31575 9.33012 5.01724 9.44394 4.71873 9.44394Z" fill="#F45503"/>
<path d="M1.17982 5.90097C0.88131 5.90097 0.568587 5.78715 0.341152 5.55953C-0.113717 5.10429 -0.113717 4.3503 0.341152 3.88082L3.86639 0.352665C4.32126 -0.102581 5.07464 -0.102581 5.54373 0.352665C5.99859 0.80791 5.99859 1.56192 5.54373 2.03139L2.01848 5.55953C1.79105 5.78715 1.47833 5.90097 1.17982 5.90097Z" fill="#F45503"/>
<path d="M18.8203 5.90146C18.5218 5.90146 18.2091 5.78764 17.9816 5.56002L14.4564 2.03188C14.0015 1.57663 14.0015 0.822625 14.4564 0.353153C14.9113 -0.102093 15.6646 -0.102093 16.1337 0.353153L19.659 3.88131C20.1138 4.33656 20.1138 5.09055 19.659 5.56002C19.4315 5.78764 19.133 5.90146 18.8203 5.90146Z" fill="#F45503"/>
<path d="M15.2951 9.44394C14.9965 9.44394 14.6838 9.33012 14.4564 9.1025C14.0015 8.64725 14.0015 7.89325 14.4564 7.42377L17.9816 3.89563C18.4365 3.44039 19.1899 3.44039 19.659 3.89563C20.1138 4.35088 20.1138 5.10487 19.659 5.57434L16.1337 9.1025C15.8921 9.33012 15.5936 9.44394 15.2951 9.44394Z" fill="#F45503"/>
</svg>
