<svg width="24" height="24" viewBox="0 0 24 24" fill="none" xmlns="http://www.w3.org/2000/svg">
<path d="M21.9421 16.8565C21.93 16.8453 21.93 16.8341 21.93 16.8229L21.1434 15.3239L18.8564 10.9163C18.8443 10.9051 18.8443 10.8939 18.8322 10.8715L18.8201 10.8603C18.7959 10.8156 18.7596 10.7597 18.7354 10.7149V10.7037C18.2151 9.8759 17.247 9.31655 16.1337 9.31655H15.444V8.77958V8.69009V8.61178C15.444 7.03443 14.7058 5.5354 13.4232 4.49502C12.6124 3.83499 11.4023 3.83499 10.5916 4.49502C9.30888 5.5354 8.57072 7.03443 8.57072 8.61178V8.67891V8.79077V9.32774H7.88098C6.76771 9.32774 5.79965 9.88708 5.27931 10.7149V10.7261C5.25511 10.7708 5.21881 10.8268 5.19461 10.8715L5.18251 10.8827C5.17041 10.8939 5.17041 10.9051 5.1583 10.9275L2.87125 15.3351L2.0847 16.8341C2.0847 16.8453 2.0726 16.8565 2.0726 16.8677C2.0242 16.9907 2 17.1138 2 17.248C2 17.8298 2.50823 18.2884 3.12537 18.2884H4.74687V18.445C4.74687 18.8142 5.0857 19.1162 5.49713 19.1162H6.97342C7.38485 19.1162 7.72367 18.8142 7.72367 18.445V18.2884H8.55862V19.2057C8.55862 19.642 8.94585 20 9.41778 20H14.5727C15.0447 20 15.4319 19.642 15.4319 19.2057V18.2884H16.2668V18.445C16.2668 18.8142 16.6057 19.1162 17.0171 19.1162H18.4934C18.9048 19.1162 19.2436 18.8142 19.2436 18.445V18.2884H20.8651C21.4944 18.2884 21.9905 17.8186 21.9905 17.248C22.0147 17.1026 21.9905 16.9684 21.9421 16.8565Z" fill="#F45503"/>
</svg>
