<svg width="16" height="19" viewBox="0 0 16 19" fill="none" xmlns="http://www.w3.org/2000/svg">
<path d="M0.0214844 16.96C0.0214844 18.0337 0.891511 18.9102 1.95252 18.9102H14.0692C15.1302 18.9102 16.0003 18.0337 16.0003 16.96V8.47998H0.0214844V16.96ZM11.9048 10.1234C12.6263 10.1234 13.2204 10.7369 13.2204 11.46C13.2204 12.1831 12.6263 12.7967 11.9048 12.7967C11.1833 12.7967 10.5891 12.1831 10.5891 11.46C10.5891 10.7369 11.2045 10.1234 11.9048 10.1234ZM8.00027 10.1234C8.72175 10.1234 9.31592 10.7369 9.31592 11.46C9.31592 12.1831 8.72175 12.7967 8.00027 12.7967C7.27878 12.7967 6.68461 12.1831 6.68461 11.46C6.68461 10.7369 7.27878 10.1234 8.00027 10.1234ZM8.00027 13.7608C8.72175 13.7608 9.31592 14.3744 9.31592 15.0975C9.31592 15.8206 8.72175 16.4122 8.00027 16.4122C7.27878 16.4122 6.68461 15.7986 6.68461 15.0755C6.68461 14.3524 7.27878 13.7608 8.00027 13.7608ZM4.09576 13.7608C4.81724 13.7608 5.41141 14.3744 5.41141 15.0975C5.41141 15.8206 4.81724 16.4122 4.09576 16.4122C3.37427 16.4122 2.78011 15.7986 2.78011 15.0755C2.78011 14.3524 3.37427 13.7608 4.09576 13.7608Z" fill="#F45503"/>
<path d="M16 4.09771C16 3.04592 15.13 2.16943 14.069 2.16943H13.6233V2.8268C13.6233 4.22918 12.4562 5.39052 11.0345 5.39052C9.61273 5.39052 8.46684 4.22918 8.46684 2.8268V2.16943H7.53316V2.8268C7.53316 4.22918 6.36605 5.39052 4.9443 5.39052C3.52255 5.39052 2.37666 4.22918 2.37666 2.8268V2.16943H1.93103C0.870026 2.16943 0 3.02401 0 4.09771V7.03394H15.9788V4.09771H16Z" fill="#F45503"/>
<path d="M4.96594 4.11949C5.60254 4.11949 6.13305 3.50595 6.13305 2.73902V1.38047C6.13305 0.613541 5.60254 0 4.96594 0C4.32933 0 3.79883 0.613541 3.79883 1.38047V2.76093C3.79883 3.50595 4.30811 4.11949 4.96594 4.11949Z" fill="#F45503"/>
<path d="M10.9487 4.11949C11.649 4.11949 12.2432 3.50595 12.2432 2.73902V2.05974V1.38047C12.2432 0.613541 11.6702 0 10.9487 0C10.2272 0 9.6543 0.613541 9.6543 1.38047V2.08166V2.78285C9.6543 3.50595 10.2485 4.11949 10.9487 4.11949Z" fill="#F45503"/>
</svg>
