<svg width="24" height="24" viewBox="0 0 24 24" fill="none" xmlns="http://www.w3.org/2000/svg">
<path d="M22 5.22C21.9609 4.56 21.4526 4.04 20.8074 4H20.7879H20.7683H20.7488H3.25122C2.56696 4 2.01955 4.57999 2 5.27999V5.46V17.08C2 17.12 2 17.14 2 17.18C2 17.88 2.54741 18.44 3.23167 18.46H9.13587L8.76442 19.64C8.70577 19.84 8.51026 20 8.29521 20H5.77322C5.49951 20 5.28446 20.24 5.28446 20.5C5.28446 20.78 5.49951 21 5.77322 21H18.4418C18.696 20.98 18.8915 20.76 18.8915 20.5C18.8915 20.24 18.696 20.02 18.4418 20H15.9394C15.7243 20 15.5288 19.84 15.4702 19.64L15.0987 18.46H20.7488H20.8074C21.433 18.42 21.9413 17.92 22 17.28V17.26V17.16V5.64V5.32C22 5.26 22 5.24 22 5.22ZM9.11632 13.1C9.40958 13.4 9.40958 13.9 9.11632 14.2C8.95992 14.36 8.76442 14.42 8.56892 14.42C8.37341 14.42 8.17791 14.34 8.0215 14.2L5.75367 11.86C5.46041 11.56 5.46041 11.06 5.75367 10.76L8.04106 8.42C8.33431 8.12 8.82307 8.12 9.11632 8.42C9.40958 8.72 9.40958 9.22 9.11632 9.52L7.37634 11.3L9.11632 13.1ZM13.8866 9.36L11.3451 14.02C11.2082 14.28 10.9541 14.42 10.6804 14.42C10.5631 14.42 10.4262 14.38 10.3089 14.32C9.93744 14.12 9.80059 13.64 10.0156 13.26L12.5572 8.6C12.7722 8.22 13.2219 8.08 13.5934 8.3C13.9453 8.5 14.0821 8.98 13.8866 9.36ZM18.2268 11.86L15.9394 14.2C15.783 14.36 15.5875 14.42 15.392 14.42C15.1965 14.42 15.001 14.34 14.8446 14.2C14.5513 13.9 14.5513 13.4 14.8446 13.1L16.5846 11.32L14.8446 9.54C14.5513 9.24 14.5513 8.74 14.8446 8.44C15.1378 8.14 15.6266 8.14 15.9198 8.44L18.2072 10.78C18.52 11.06 18.52 11.56 18.2268 11.86Z" fill="#F45503"/>
</svg>
