<svg width="20" height="20" viewBox="0 0 20 20" fill="none" xmlns="http://www.w3.org/2000/svg">
<path d="M6.61841 13.1586C9.02023 13.1586 10.9673 11.2357 10.9673 8.86374C10.9673 6.49174 9.02023 4.56885 6.61841 4.56885C4.21659 4.56885 2.26953 6.49174 2.26953 8.86374C2.26953 11.2357 4.21659 13.1586 6.61841 13.1586Z" fill="#F45503"/>
<path d="M13.0687 17.7021C11.9561 15.2778 9.48807 13.5947 6.61825 13.5947C3.87646 13.5947 1.50555 15.1339 0.326718 17.3838C0.123623 17.6542 0 17.9855 0 18.3474C0 19.2369 0.732908 19.9608 1.63359 19.9608H11.572C12.4727 19.9608 13.2056 19.2369 13.2056 18.3474C13.2012 18.1207 13.1526 17.9027 13.0687 17.7021Z" fill="#F45503"/>
<path d="M12.6343 8.40973C12.6259 8.40969 12.6218 8.40967 12.6135 8.40963C12.6093 8.40961 12.601 8.40957 12.5968 8.40955L12.5719 8.40944C12.0398 8.38201 11.6135 7.94348 11.616 7.403C11.6164 7.324 11.6251 7.2492 11.642 7.1786L11.7058 6.87539C11.7313 6.74663 11.7569 6.61786 11.7866 6.49327L11.7866 6.48495C11.8291 6.29806 11.8798 6.11536 11.9389 5.9327C11.6755 5.34524 11.5455 4.68357 11.582 3.99358C11.6958 1.88619 13.3962 0.16453 15.5009 0.0288149C17.955 -0.13022 19.9918 1.82088 19.9805 4.24057C19.9697 6.56048 18.0773 8.43508 15.757 8.42427L12.6218 8.40967C12.6301 8.40971 12.6343 8.40973 12.6426 8.40976L12.6343 8.40973Z" fill="#F45503"/>
</svg>
