<svg width="45" height="61" viewBox="0 0 45 61" fill="none" xmlns="http://www.w3.org/2000/svg">
<path d="M45.0005 26.5967C44.9988 20.9969 43.3916 15.515 40.3691 10.801C37.3465 6.08691 33.0355 2.33844 27.9473 0V53.1934C33.0355 50.855 37.3465 47.1065 40.3691 42.3925C43.3916 37.6784 44.9988 32.1965 45.0005 26.5967Z" fill="#FFFFFF"/>
<path d="M6.89299 29.764C10.6999 29.764 13.7856 26.6779 13.7856 22.871C13.7856 19.0641 10.6999 15.978 6.89299 15.978C3.08611 15.978 0 19.0641 0 22.871C0 26.6779 3.08611 29.764 6.89299 29.764Z" fill="#FFFFFF"/>
<path d="M8.61776 53.2099C8.61776 52.7516 8.43602 52.3119 8.1127 51.987C7.78937 51.6621 7.35093 51.4785 6.89258 51.4763C7.34891 51.4849 7.78383 51.6706 8.10578 51.9941C8.42773 52.3176 8.61135 52.7536 8.61776 53.2099Z" fill="#FFFFFF"/>
<path d="M7.2432 37.7069H6.89319C6.65721 37.6943 6.42063 37.6943 6.18465 37.7069C4.5817 37.8767 3.08892 38.6029 1.96591 39.7592C0.842891 40.9156 0.160515 42.4289 0.0376444 44.0362C-0.0852261 45.6434 0.358979 47.2428 1.29317 48.5564C2.22737 49.87 3.59241 50.8147 5.15092 51.2262L5.45941 51.2929C5.5551 51.3176 5.65276 51.3343 5.75121 51.3429H5.80127H6.06784H6.14273H6.38447H6.86796C7.32631 51.3451 7.76517 51.5287 8.08849 51.8536C8.41181 52.1785 8.59315 52.6182 8.59314 53.0765C8.59319 53.5365 8.41257 53.9779 8.08971 54.3055C7.76685 54.633 7.32783 54.8203 6.86796 54.8268C6.70276 54.8266 6.53809 54.8433 6.37633 54.8769L6.13459 54.9436C5.54826 55.1325 5.04823 55.5241 4.72441 56.0481C4.40058 56.5722 4.27419 57.1944 4.36749 57.8033C4.46078 58.4123 4.76767 58.9681 5.23354 59.3711C5.69941 59.7742 6.29347 59.9981 6.90947 60.0028C9.88709 60.0493 12.7614 58.911 14.8997 56.8383C17.038 54.7656 18.2654 51.9284 18.3118 48.9507C18.3582 45.9731 17.2198 43.099 15.1471 40.9607C13.0745 38.8224 10.2375 37.595 7.25988 37.5486L7.2432 37.7069Z" fill="#FFFFFF"/>
</svg>
