<svg width="45" height="46" viewBox="0 0 45 46" fill="none" xmlns="http://www.w3.org/2000/svg">
<path d="M31.2782 11.175C33.9056 10.1042 36.3139 8.55944 38.3828 6.61787C36.2977 4.52624 33.8195 2.86755 31.091 1.73724C28.3624 0.606941 25.4372 0.0273295 22.4838 0.0317635H22.375C22.4604 2.84118 23.0593 5.61125 24.1417 8.20518C24.6943 9.54533 25.7564 10.6111 27.0947 11.168C28.4331 11.725 29.938 11.7275 31.2782 11.175Z" fill="#FFFFFF"/>
<path d="M8.20477 24.3027C5.76739 23.2639 3.16911 22.6533 0.524182 22.4977C3.17962 22.3388 5.7884 21.7262 8.23696 20.6864C9.55322 20.1341 10.5988 19.0855 11.1475 17.7677C11.6962 16.4499 11.7038 14.9691 11.1684 13.6458C10.1817 11.2171 8.78773 8.97466 7.04655 7.01493C8.98427 8.73747 11.1976 10.1222 13.5942 11.1112C14.9082 11.6476 16.3802 11.6448 17.6921 11.1033C19.0039 10.5618 20.0496 9.52525 20.6026 8.21823C21.6982 5.61196 22.3036 2.82592 22.3883 0C17.9472 0.0190848 13.6114 1.35292 9.9274 3.83328C6.24343 6.31364 3.3763 9.82943 1.68802 13.9372C-0.000262319 18.0449 -0.43427 22.5606 0.440738 26.9147C1.31575 31.2688 3.46052 35.2663 6.60465 38.4029C8.50292 36.3686 10.0204 34.0099 11.085 31.4392C11.6445 30.1104 11.6558 28.6142 11.1162 27.2772C10.5766 25.9401 9.5299 24.8708 8.20477 24.3027Z" fill="#FFFFFF"/>
<path d="M13.6011 33.8849C10.9997 34.9519 8.61403 36.483 6.56055 38.4037C10.7453 42.6016 16.4231 44.9699 22.3505 44.9898C22.261 42.1692 21.6582 39.3886 20.5713 36.7844C20.0221 35.4834 18.9834 34.4504 17.6795 33.908C16.3757 33.3656 14.911 33.3573 13.6011 33.8849Z" fill="#FFFFFF"/>
<path d="M38.3836 6.60498C36.4238 8.6926 34.8676 11.1253 33.7942 13.7799C33.2612 15.1119 33.2781 16.6007 33.8408 17.9204C34.4035 19.2401 35.4662 20.2829 36.7963 20.8205C39.2392 21.8285 41.8373 22.4087 44.4769 22.5358C41.8378 22.6669 39.2404 23.247 36.7963 24.2511C35.463 24.8024 34.4025 25.8596 33.847 27.1913C33.2916 28.5229 33.2863 30.0203 33.8327 31.3557C34.8555 33.8524 36.3043 36.1523 38.1146 38.153C36.0711 36.3006 33.7128 34.8287 31.1509 33.8071C29.8438 33.2913 28.3873 33.3065 27.0912 33.8493C25.7952 34.3921 24.7623 35.4197 24.2129 36.7129C23.0955 39.3498 22.477 42.1711 22.3887 45.0335H22.4974C26.9484 45.0372 31.3002 43.7197 35.0018 41.2481C38.7034 38.7765 41.5883 35.2619 43.2909 31.1494C44.9934 27.037 45.437 22.5118 44.5657 18.147C43.6944 13.7822 41.5475 9.77414 38.3965 6.63059L38.3836 6.60498Z" fill="#FFFFFF"/>
</svg>
